<?xml version="1.0" encoding="UTF-8" standalone="no" ?>
<!DOCTYPE svg PUBLIC "-//W3C//DTD SVG 1.1//EN" "http://www.w3.org/Graphics/SVG/1.1/DTD/svg11.dtd">
<svg xmlns="http://www.w3.org/2000/svg" xmlns:xlink="http://www.w3.org/1999/xlink" version="1.1" width="362.0599401855469" height="141.41199999999998" xml:space="preserve">
<desc>Created with Fabric.js 1.6.0-rc.1</desc>
<defs></defs>
<g style="stroke: none; stroke-width: 1; stroke-dasharray: none; stroke-linecap: butt; stroke-linejoin: miter; stroke-miterlimit: 10; fill: none; fill-rule: nonzero; opacity: 1;" transform="translate(10 9.999999999999993) rotate(0.15) scale(1.8 3.07)" >
  <path d="M 62.988 23.345 c 0 0 4.098 -0.51 5.377 2.527 c 1.283 3.036 -0.115 5.184 1.213 6.147 c 1.326 0.963 2.967 1.828 3.088 2.89 c 0.121 1.061 -1.01 1.616 -1.01 1.616 s -8.303 1.07 -8.959 -0.241 c -1.611 -3.227 -0.998 -4.103 -1.906 -6.014 c -0.982 -2.066 -3.828 -3.762 -3.828 -3.762 L 62.988 23.345 z" style="stroke: none; stroke-width: 1; stroke-dasharray: none; stroke-linecap: butt; stroke-linejoin: miter; stroke-miterlimit: 10; fill: #217a19; fill-rule: nonzero; opacity: 1;" transform=" matrix(1 0 0 1 0 0) " stroke-linecap="round" />
  <path d="M 55.512 26.458 c 0.361 0.506 2.639 2.933 2.639 2.933 s -8.715 2.625 -19.064 2.787 c -12.043 0.188 -19.068 -2.787 -19.068 -2.787 l 2.789 -2.493 c 0 0 11.693 2.421 19.357 1.907 C 49.832 28.291 55.512 26.458 55.512 26.458 z" style="stroke: none; stroke-width: 1; stroke-dasharray: none; stroke-linecap: butt; stroke-linejoin: miter; stroke-miterlimit: 10; fill: #217a19; fill-rule: nonzero; opacity: 1;" transform=" matrix(1 0 0 1 0 0) " stroke-linecap="round" />
  <path d="M 20.885 26.288 c 0 0 -1.76 2.533 -3.734 3.692 c -1.977 1.16 -2.576 2.992 -2.48 4.198 c 0.1 1.206 1.16 1.083 1.135 2.12 c -0.021 1.037 -4.58 0.496 -5.906 0.425 c -1.324 -0.07 -3.955 -1.019 -4.125 -1.79 c -0.168 -0.771 -0.871 -4.604 1.176 -6.197 c 2.049 -1.594 4.914 -5.43 7.52 -4.998 C 17.072 24.17 20.885 26.288 20.885 26.288 z" style="stroke: none; stroke-width: 1; stroke-dasharray: none; stroke-linecap: butt; stroke-linejoin: miter; stroke-miterlimit: 10; fill: #217a19; fill-rule: nonzero; opacity: 1;" transform=" matrix(1 0 0 1 0 0) " stroke-linecap="round" />
  <path d="M 7.189 20.06 l 3.443 3.025 c 0 0 -3.789 1.271 -6.359 0.208 C 0.219 21.618 0 18.571 0 18.571 S 4.271 20.617 7.189 20.06 z" style="stroke: none; stroke-width: 1; stroke-dasharray: none; stroke-linecap: butt; stroke-linejoin: miter; stroke-miterlimit: 10; fill: #217a19; fill-rule: nonzero; opacity: 1;" transform=" matrix(1 0 0 1 0 0) " stroke-linecap="round" />
  <path d="M 91.258 6.919 c -0.438 -1.415 -2.16 -5.595 -7.061 -6.003 c -4.898 -0.409 -7.633 0.974 -9.131 5.156 c -1.498 4.182 -2.459 9.703 -4.004 11.729 c -1.543 2.026 -5.678 4.294 -5.678 4.294 l 2.113 0.217 c 0 0 3.068 0.105 7.246 -2.424 s 6.154 -8.779 7.156 -9.151 c 1.002 -0.37 6.66 -0.507 7.771 -0.726 S 91.695 8.333 91.258 6.919 z M 84.809 5.474 c -0.641 -0.106 -1.094 -0.575 -1.016 -1.05 c 0.078 -0.476 0.662 -0.773 1.301 -0.668 s 1.094 0.577 1.014 1.053 C 86.029 5.281 85.449 5.58 84.809 5.474 z" style="stroke: none; stroke-width: 1; stroke-dasharray: none; stroke-linecap: butt; stroke-linejoin: miter; stroke-miterlimit: 10; fill: #217a19; fill-rule: nonzero; opacity: 1;" transform=" matrix(1 0 0 1 0 0) " stroke-linecap="round" />
  <path d="M 59.871 15.126 c 0.371 -0.188 0.754 -0.327 1.182 -0.352 c 1.01 -0.056 2.848 -1.995 3.93 -3.382 c -1.465 -1.31 -4.223 -4.231 -8.617 -6.797 c -0.641 2.239 -1.18 3.441 -1.605 4.075 L 59.871 15.126 z M 53.621 8.234 c 0.395 -0.313 1.152 -2.334 1.689 -4.227 c -3.908 -2.099 -8.975 -3.832 -15.443 -3.998 c -0.479 -0.013 -0.951 -0.011 -1.42 -0.006 l -0.535 6.283 c 1.148 0.43 3.277 1.527 6.365 3.28 C 45.607 9.359 52.457 8.291 53.621 8.234 z M 21.764 19.671 l -0.758 -0.234 l -0.623 -0.093 L 17.4 23.63 c 2.672 0.916 5.814 1.769 9.408 2.444 l 1.033 -4.357 c -1 -0.146 -1.936 -0.389 -2.623 -0.754 C 24.133 20.384 22.764 19.972 21.764 19.671 z M 14.436 17.817 c -0.244 -0.147 -0.48 -0.315 -0.715 -0.485 l -3.414 3.188 c 1.531 0.875 3.521 1.809 5.947 2.703 l 2.818 -4.05 C 17.666 19 15.869 18.691 14.436 17.817 z M 61.117 15.945 c -0.604 0.034 -1.176 0.47 -1.896 1.021 c -0.623 0.477 -1.367 1.011 -2.285 1.408 l 2.766 4.856 c 2.508 -1.107 4.617 -2.281 6.273 -3.32 l -3.514 -4.451 C 62 15.734 61.543 15.922 61.117 15.945 z M 55.197 18.875 l -1.984 0.232 l -1.936 0.408 l -1.633 0.795 c -0.529 0.298 -1.131 0.636 -1.813 0.938 l 0.977 5.373 c 3.686 -0.689 6.975 -1.75 9.807 -2.925 l -2.824 -4.959 C 55.592 18.783 55.412 18.848 55.197 18.875 z M 53.752 9.396 c -0.582 0 -5.484 0.735 -8.957 1.277 l 0.777 10.09 c 1.389 -0.297 2.529 -0.93 3.496 -1.475 l 1.879 -0.898 l 2.143 -0.449 l 1.955 -0.229 c 1.523 -0.197 2.555 -0.983 3.463 -1.678 c 0.123 -0.095 0.246 -0.184 0.369 -0.274 l -5.039 -6.365 C 53.805 9.396 53.777 9.396 53.752 9.396 z M 28.822 9.634 c 0.668 0.038 4.004 -1.599 5.609 -2.388 c 1.289 -0.632 1.939 -0.946 2.314 -1.084 l 0.52 -6.123 c -4.523 0.191 -8.475 1.172 -11.857 2.535 c -0.451 1.226 -0.943 2.59 -1.416 3.924 c 0.822 0.383 2.111 1.232 3.959 2.515 C 27.951 9.013 28.818 9.603 28.822 9.634 z M 43.762 22.106 c -1.973 -0.056 -2.943 -0.347 -3.801 -0.604 c -0.492 -0.146 -0.918 -0.269 -1.471 -0.33 L 38.244 27.4 c 3.348 0.125 6.494 -0.105 9.408 -0.578 l -0.938 -5.153 C 45.842 21.949 44.865 22.137 43.762 22.106 z M 31.617 21.811 c -0.779 0.082 -1.689 0.095 -2.6 0.033 l -1.053 4.44 c 2.711 0.467 5.66 0.832 8.842 1.047 c 0.09 0.006 0.176 0.007 0.264 0.013 l 0.246 -6.201 c -1.352 0.032 -2.576 0.214 -3.758 0.397 L 31.617 21.811 z M 65.955 12.059 c -0.463 0.6 -1.447 1.803 -2.539 2.716 l 3.549 4.497 c 2.139 -1.418 3.299 -2.451 3.299 -2.451 C 72.193 14.55 67.701 12.892 65.955 12.059 z M 43.795 20.934 c 0.211 0.006 0.41 -0.006 0.611 -0.017 l -0.799 -10.383 c -2.813 -1.592 -5.93 -3.224 -6.375 -3.298 c -0.227 0.055 -1.318 0.591 -2.283 1.064 c -3.424 1.679 -5.041 2.38 -5.914 2.484 l -3.152 9.19 c 1.365 0.671 3.883 0.851 5.611 0.667 l 1.885 -0.262 c 1.342 -0.209 2.732 -0.426 4.336 -0.426 c 1.17 0 1.857 0.207 2.582 0.424 C 41.084 20.615 41.977 20.884 43.795 20.934 z M 23.918 3.211 C 21.49 4.322 19.393 5.609 17.621 6.9 c 1.996 -0.279 4.195 -0.564 5.205 -0.624 C 23.24 5.104 23.6 4.095 23.918 3.211 z M 10.309 13.971 c -1.699 1.986 -2.281 0.333 -3.699 3.004 c -0.275 0.519 0.639 1.614 2.654 2.913 l 3.529 -3.294 C 11.645 15.591 10.727 14.497 10.309 13.971 z M 15.043 16.814 c 1.477 0.898 3.529 1.127 4.889 1.277 l 1.445 0.231 l 0.723 0.224 c 0.736 0.221 1.752 0.527 2.713 0.93 l 3.109 -9.064 l -0.639 -0.436 c -0.971 -0.674 -3.553 -2.461 -4.102 -2.539 c -0.463 -0.048 -3.908 0.401 -7.424 0.916 c -2.334 1.936 -3.9 3.711 -4.693 4.679 C 11.344 13.396 13.088 15.624 15.043 16.814 z" style="stroke: none; stroke-width: 1; stroke-dasharray: none; stroke-linecap: butt; stroke-linejoin: miter; stroke-miterlimit: 10; fill: #696905; fill-rule: nonzero; opacity: 1;" transform=" matrix(1 0 0 1 0 0) " stroke-linecap="round" />
</g>
  <g transform="translate(255.2 74.7)">
   <text font-family="Choda Chado" font-size="40" font-weight="normal" style="stroke: none; stroke-width: 1; stroke-dasharray: none; stroke-linecap: butt; stroke-linejoin: miter; stroke-miterlimit: 10; fill: #000000; fill-rule: nonzero; opacity: 1;" ><tspan x="-97.36" y="8.98" style="stroke: none; stroke-width: 0; stroke-dasharray: none; stroke-linecap: butt; stroke-linejoin: miter; stroke-miterlimit: 4; fill: #000000; fill-rule: ; opacity: 1;">X</tspan><tspan x="-73.04" y="8.98" style="stroke: none; stroke-width: 0; stroke-dasharray: none; stroke-linecap: butt; stroke-linejoin: miter; stroke-miterlimit: 4; fill: #000000; fill-rule: ; opacity: 1;">u</tspan><tspan x="-48.88" y="8.98" style="stroke: none; stroke-width: 0; stroke-dasharray: none; stroke-linecap: butt; stroke-linejoin: miter; stroke-miterlimit: 4; fill: #000000; fill-rule: ; opacity: 1;">r</tspan><tspan x="-32.84" y="8.98" style="stroke: none; stroke-width: 0; stroke-dasharray: none; stroke-linecap: butt; stroke-linejoin: miter; stroke-miterlimit: 4; fill: #000000; fill-rule: ; opacity: 1;">a</tspan><tspan x="-9.16" y="8.98" style="stroke: none; stroke-width: 0; stroke-dasharray: none; stroke-linecap: butt; stroke-linejoin: miter; stroke-miterlimit: 4; fill: #000000; fill-rule: ; opacity: 1;">_</tspan><tspan x="9.84" y="8.98" style="stroke: none; stroke-width: 0; stroke-dasharray: none; stroke-linecap: butt; stroke-linejoin: miter; stroke-miterlimit: 4; fill: #000000; fill-rule: ; opacity: 1;">x</tspan><tspan x="33.48" y="8.98" style="stroke: none; stroke-width: 0; stroke-dasharray: none; stroke-linecap: butt; stroke-linejoin: miter; stroke-miterlimit: 4; fill: #000000; fill-rule: ; opacity: 1;">u</tspan><tspan x="57.64" y="8.98" style="stroke: none; stroke-width: 0; stroke-dasharray: none; stroke-linecap: butt; stroke-linejoin: miter; stroke-miterlimit: 4; fill: #000000; fill-rule: ; opacity: 1;">r</tspan><tspan x="73.68" y="8.98" style="stroke: none; stroke-width: 0; stroke-dasharray: none; stroke-linecap: butt; stroke-linejoin: miter; stroke-miterlimit: 4; fill: #000000; fill-rule: ; opacity: 1;">a</tspan></text>
 </g>
  <g transform="translate(213.08 105.7)">
   <text font-family="Amerika Sans" font-size="40" font-weight="normal" style="stroke: none; stroke-width: 1; stroke-dasharray: none; stroke-linecap: butt; stroke-linejoin: miter; stroke-miterlimit: 10; fill: #000000; fill-rule: nonzero; opacity: 1;" ><tspan x="-55.24" y="8.98" style="stroke: none; stroke-width: 0; stroke-dasharray: none; stroke-linecap: butt; stroke-linejoin: miter; stroke-miterlimit: 4; fill: #000000; fill-rule: ; opacity: 1;">i</tspan><tspan x="-45.88" y="8.98" style="stroke: none; stroke-width: 0; stroke-dasharray: none; stroke-linecap: butt; stroke-linejoin: miter; stroke-miterlimit: 4; fill: #000000; fill-rule: ; opacity: 1;">s</tspan><tspan x="-29" y="8.98" style="stroke: none; stroke-width: 0; stroke-dasharray: none; stroke-linecap: butt; stroke-linejoin: miter; stroke-miterlimit: 4; fill: #000000; fill-rule: ; opacity: 1;">l</tspan><tspan x="-15.72" y="8.98" style="stroke: none; stroke-width: 0; stroke-dasharray: none; stroke-linecap: butt; stroke-linejoin: miter; stroke-miterlimit: 4; fill: #000000; fill-rule: ; opacity: 1;">a</tspan><tspan x="8.12" y="8.98" style="stroke: none; stroke-width: 0; stroke-dasharray: none; stroke-linecap: butt; stroke-linejoin: miter; stroke-miterlimit: 4; fill: #000000; fill-rule: ; opacity: 1;">n</tspan><tspan x="31.4" y="8.98" style="stroke: none; stroke-width: 0; stroke-dasharray: none; stroke-linecap: butt; stroke-linejoin: miter; stroke-miterlimit: 4; fill: #000000; fill-rule: ; opacity: 1;">d</tspan></text>
 </g>
</svg>